<svg xmlns="http://www.w3.org/2000/svg"  viewBox="0 0 64 64" width="512px" height="512px"><path fill="#f9e3ae" d="M32 11A21 21 0 1 0 32 53A21 21 0 1 0 32 11Z" transform="rotate(-78.69 32 31.996)"/><path fill="#faefde" d="M36.12,11.41A20.93,20.93,0,0,0,18,16.35a3,3,0,0,0,.26,4.71h0A3,3,0,0,0,22,20.82,15,15,0,0,1,45.73,26a3,3,0,0,0,3.58,1.74h0a3,3,0,0,0,2-4A20.94,20.94,0,0,0,36.12,11.41Z"/><path fill="#f6d397" d="M24.51,51.62a20.93,20.93,0,0,0,18.67-1.86,3,3,0,0,0,.53-4.69h0A3,3,0,0,0,40,44.68a15,15,0,0,1-22.54-9.06,3,3,0,0,0-3.24-2.31h0a3,3,0,0,0-2.59,3.62A20.94,20.94,0,0,0,24.51,51.62Z"/><path fill="#8d6c9f" d="M32,10A22,22,0,1,0,54,32,22,22,0,0,0,32,10Zm0,42A20,20,0,1,1,52,32,20,20,0,0,1,32,52Z"/><path fill="#8d6c9f" d="M42.08 19.58a1 1 0 1 0-1.26 1.55 14.15 14.15 0 0 1 1.52 1.43 1 1 0 0 0 1.48-1.35A16.2 16.2 0 0 0 42.08 19.58zM21.9 21.91a1 1 0 0 0 .67-.26A14 14 0 0 1 37.09 19a1 1 0 0 0 .73-1.86 16 16 0 0 0-16.6 3.08 1 1 0 0 0 .67 1.74zM32 8a1 1 0 0 0 1-1V1a1 1 0 0 0-2 0V7A1 1 0 0 0 32 8zM32 56a1 1 0 0 0-1 1v6a1 1 0 0 0 2 0V57A1 1 0 0 0 32 56zM8 32a1 1 0 0 0-1-1H1a1 1 0 0 0 0 2H7A1 1 0 0 0 8 32zM63 31H57a1 1 0 0 0 0 2h6a1 1 0 0 0 0-2zM21.71 9.19a1 1 0 1 0 1.85-.75l-1.5-3.71a1 1 0 1 0-1.85.75zM42.29 54.81a1 1 0 1 0-1.85.75l1.5 3.71a1 1 0 1 0 1.85-.75zM9.75 41a1 1 0 0 0-1.3-.55l-3.71 1.5a1 1 0 1 0 .75 1.85l3.71-1.5A1 1 0 0 0 9.75 41zM54.25 23a1 1 0 0 0 1.3.55l3.71-1.5a1 1 0 0 0-.75-1.85l-3.71 1.5A1 1 0 0 0 54.25 23zM41 9.75a1 1 0 0 0 1.3-.55l1.5-3.71a1 1 0 1 0-1.85-.75l-1.5 3.71A1 1 0 0 0 41 9.75zM23 54.25a1 1 0 0 0-1.3.55l-1.5 3.71a1 1 0 1 0 1.85.75l1.5-3.71A1 1 0 0 0 23 54.25zM59.26 41.94l-3.71-1.5a1 1 0 0 0-.75 1.85l3.71 1.5a1 1 0 0 0 .75-1.85zM4.74 22.06l3.71 1.5a1 1 0 0 0 .75-1.85l-3.71-1.5a1 1 0 0 0-.75 1.85zM13.62 15A1 1 0 0 0 15 13.62L10.79 9.37a1 1 0 0 0-1.41 1.41zM50.38 49A1 1 0 0 0 49 50.38l4.24 4.24a1 1 0 0 0 1.41-1.41zM13.62 49L9.37 53.21a1 1 0 1 0 1.41 1.41L15 50.38A1 1 0 0 0 13.62 49zM49.68 15.32a1 1 0 0 0 .71-.29l4.24-4.24a1 1 0 0 0-1.41-1.41L49 13.62a1 1 0 0 0 .71 1.71zM32 44a1 1 0 0 0-1 1v2a1 1 0 0 0 2 0V45A1 1 0 0 0 32 44zM37.8 43.68a1 1 0 1 0-1.85.75l.75 1.85a1 1 0 1 0 1.85-.75zM27.5 43.13a1 1 0 0 0-1.3.55l-.75 1.85a1 1 0 1 0 1.85.75l.75-1.85A1 1 0 0 0 27.5 43.13zM22.1 40.49L20.69 41.9a1 1 0 1 0 1.41 1.41l1.41-1.41a1 1 0 0 0-1.41-1.41zM21 36.69a1 1 0 0 0-1.31-.53l-1.84.78a1 1 0 1 0 .78 1.84L20.42 38A1 1 0 0 0 21 36.69z"/></svg>